# xmcd
# Copyright (C) 1995-1998 Ti Kan
#
# Track frame offsets:
#       150
#       17063
#       29938
#       49769
#
# Disc length: 963 seconds
#
# Revision: 0
# Processed by: cddbd v1.4PL0 Copyright (c) Steve Scherf et al.
# Submitted via: CD-Transfer v1.0
#
DISCID=3103c104
DTITLE=Cléan - Room 16
DYEAR=2001
DGENRE=
TTITLE0=Room 16
TTITLE1=Unics
TTITLE2=Walking
TTITLE3=Call My ...
EXTD=
EXTT0=
EXTT1=
EXTT2=
EXTT3=
PLAYORDER=
